<?xml version="1.0" standalone="no"?> 
<!DOCTYPE svg PUBLIC "-//W3C//DTD SVG 1.1//EN" "http://www.w3.org/Graphics/SVG/1.1/DTD/svg11.dtd" >
<svg xmlns="http://www.w3.org/2000/svg">
<defs>
  <font id="LAPIDARIOS-icons" horiz-adv-x="250">
    <font-face font-family="LAPIDARIOS-icons"
      units-per-em="312.5" ascent="312.5"
      descent="0" />
    <missing-glyph horiz-adv-x="0" />
    <glyph glyph-name="alert"
      unicode="&#xE001;"
      horiz-adv-x="312.5" d=" M178.3854166666667 52.0833333333333H132.8125C123.6979166666667 52.0833333333333 115.8854166666667 41.6666666666666 121.09375 32.5520833333333C128.90625 20.8333333333333 141.9270833333334 13.0208333333333 156.25 13.0208333333333S183.59375 20.8333333333333 190.1041666666667 32.5520833333333C195.3125 41.6666666666666 188.8020833333334 52.0833333333333 178.3854166666667 52.0833333333333z M283.8541666666667 95.0520833333333L278.6458333333334 101.5625C257.8125 128.90625 247.3958333333334 161.4583333333334 247.3958333333334 195.3125V204.4270833333333C247.3958333333334 251.3020833333333 213.5416666666667 292.96875 166.6666666666667 298.1770833333333C111.9791666666667 304.6875 65.1041666666667 261.71875 65.1041666666667 208.3333333333333V195.3125C65.1041666666667 161.4583333333334 54.6875 128.90625 33.8541666666667 101.5625L28.6458333333333 95.0520833333333C26.0416666666667 92.4479166666667 24.7395833333333 87.2395833333333 26.0416666666667 84.6354166666667C29.9479166666667 72.9166666666667 40.3645833333333 65.1041666666667 52.0833333333333 65.1041666666667H260.4166666666667C272.1354166666667 65.1041666666667 282.5520833333333 72.9166666666667 285.15625 84.6354166666667C286.4583333333334 88.5416666666667 285.15625 92.4479166666667 283.8541666666667 95.0520833333333z" />
    <glyph glyph-name="arrow-left-share"
      unicode="&#xE002;"
      horiz-adv-x="287.16216216216213" d=" M73.0574324324324 150.3378378378379C73.0574324324324 152.4493243243243 73.902027027027 154.5608108108108 75.5912162162162 156.25L193.4121621621621 274.070945945946C195.1013513513513 275.7601351351352 197.2128378378378 276.6047297297298 199.3243243243243 276.6047297297298C201.4358108108108 276.6047297297298 203.5472972972973 275.7601351351352 205.2364864864865 274.070945945946L217.9054054054054 261.4020270270271C219.5945945945946 259.7128378378378 220.4391891891892 257.6013513513514 220.4391891891892 255.4898648648649C220.4391891891892 253.3783783783784 219.5945945945946 251.2668918918919 217.9054054054054 249.5777027027027L118.2432432432433 150.3378378378379L217.4831081081081 51.097972972973C219.1722972972973 49.4087837837838 220.0168918918919 47.2972972972974 220.0168918918919 45.1858108108108S219.1722972972973 40.9628378378379 217.4831081081081 39.2736486486486L204.8141891891892 26.6047297297297C203.125 24.9155405405405 201.0135135135135 24.070945945946 198.902027027027 24.070945945946C196.7905405405406 24.070945945946 194.6790540540541 24.9155405405406 192.9898648648649 26.6047297297297L75.5912162162162 144.4256756756757C73.902027027027 146.1148648648649 73.0574324324324 148.2263513513514 73.0574324324324 150.3378378378379z" />
    <glyph glyph-name="arrow-left"
      unicode="&#xE003;"
      horiz-adv-x="125" d=" M110.6651376146789 312.5C113.5321100917431 312.5 115.8256880733945 311.9266055045872 118.6926605504587 310.2064220183487C125.5733944954129 305.6192660550459 127.2935779816514 297.0183486238533 122.7064220183486 290.1376146788991L34.4036697247706 156.5366972477064L122.7064220183486 22.3623853211009C127.2935779816514 15.4816513761468 125 6.8807339449542 118.6926605504587 2.2935779816514C111.8119266055046 -2.2935779816513 103.2110091743119 1e-13 98.6238532110092 6.3073394495414L0 156.5366972477064L98.6238532110092 306.1926605504587C101.4908256880734 310.2064220183487 106.0779816513762 312.5 110.6651376146789 312.5z" />
    <glyph glyph-name="arrow-right-share"
      unicode="&#xE004;"
      horiz-adv-x="287.16216216216213" d=" M220.0168918918919 150.3378378378379C220.0168918918919 148.2263513513514 219.1722972972973 146.1148648648649 217.4831081081081 144.4256756756757L99.6621621621622 27.0270270270271C97.972972972973 25.3378378378379 95.8614864864865 24.4932432432433 93.75 24.4932432432433C91.6385135135135 24.4932432432433 89.527027027027 25.3378378378379 87.8378378378379 27.0270270270271L75.1689189189189 39.695945945946C73.4797297297298 41.3851351351352 72.6351351351352 43.4966216216217 72.6351351351352 45.6081081081081C72.6351351351352 47.7195945945946 73.4797297297297 49.8310810810811 75.1689189189189 51.5202702702703L174.4087837837838 150.7601351351352L75.5912162162162 249.5777027027027C73.902027027027 251.2668918918919 73.0574324324324 253.3783783783784 73.0574324324324 255.4898648648649S73.902027027027 259.7128378378378 75.5912162162162 261.4020270270271L88.2601351351351 274.070945945946C89.9493243243243 275.7601351351352 92.0608108108108 276.6047297297298 94.1722972972973 276.6047297297298C96.2837837837838 276.6047297297298 98.3952702702703 275.7601351351352 100.0844594594594 274.070945945946L217.4831081081081 156.25C219.1722972972973 154.5608108108108 220.0168918918919 152.4493243243243 220.0168918918919 150.3378378378379z" />
    <glyph glyph-name="arrow-right"
      unicode="&#xE005;"
      horiz-adv-x="125" d=" M14.3348623853211 0C11.4678899082569 0 9.1743119266055 0.5733944954129 6.3073394495413 2.2935779816514C-0.5733944954128 6.8807339449541 -2.2935779816514 15.4816513761468 2.2935779816514 22.3623853211009L90.5963302752294 156.5366972477064L2.2935779816514 290.1376146788991C-1.7201834862385 297.0183486238533 0 305.6192660550459 6.3073394495413 310.2064220183487C13.1880733944954 314.2201834862385 21.7889908256881 312.5 26.3761467889908 306.1926605504587L125 156.5366972477064L26.3761467889908 6.8807339449542C23.5091743119266 2.2935779816514 18.9220183486239 0 14.3348623853211 0z" />
    <glyph glyph-name="contato-comigo"
      unicode="&#xE006;"
      horiz-adv-x="250" d=" M215.75 249H34.25C30 249 26.5 245.5 26.5 241.25V133.75C26.5 129.5 30 126 34.25 126H215.75C220 126 223.5 129.5 223.5 133.75V241.25C223.5 245.5 220 249 215.75 249zM204.25 236.75L125 172.25L45.75 236.75H204.25zM36.5 229.5L91 185L36.5 140.5V229.5zM51.25 138.25L98.75 176.75L120 159.5C123 157 127.5 157 130.25 159.5L151.25 176.75L198.75 138.25H51.25zM213.5 140.5L159 185L213.5 229.5V140.5z" />
    <glyph glyph-name="contato"
      unicode="&#xE007;"
      horiz-adv-x="477.43055555555554" d=" M238.7152777777778 119.3576388888889L462.2395833333334 312.5H15.1909722222222L238.7152777777778 119.3576388888889zM177.9513888888889 138.8888888888889L238.7152777777778 88.9756944444444L297.3090277777778 138.8888888888889L462.2395833333333 -2.1701388888889H15.1909722222222L177.9513888888889 138.8888888888889zM0 13.0208333333333V297.3090277777778L164.9305555555556 156.25L0 13.0208333333333zM477.4305555555555 13.0208333333333V297.3090277777778L312.5 156.25L477.4305555555555 13.0208333333333z" />
    <glyph glyph-name="downloads"
      unicode="&#xE008;"
      horiz-adv-x="250" d=" M192.5 165L192.5 120L57.5 120L57.5 165L35 165L35 97.5L215 97.5L215 165z M170 210L147.5 210L147.5 277.5L102.5 277.5L102.5 210L80 210L125 142.5z" />
    <glyph glyph-name="ead"
      unicode="&#xE009;"
      horiz-adv-x="250" d=" M230.25 293H19.75C15.25 293 12.5 290.25 12.5 285.5V130.75C12.5 126.25 17 123.5 21.75 123.5H152.5L152 134H24.75V249.5H223.75V134H215.75C215 131.75 213.5 129.75 211.25 128.75L202 123.75L202 123.5H230.25C234.75 123.5 237.5 126.25 237.5 130.75V285.5C237.5 290.25 234.75 293 230.25 293zM58.25 288.25C61.25 288.25 63.5 286 63.5 283S61.25 277.5 58.25 277.5C55.25 277.5 53 280 53 282.75S55.25 288.25 58.25 288.25zM43.75 288.25C46.75 288.25 49 286 49 283S46.75 277.5 43.75 277.5C40.75 277.5 38.5 280 38.5 282.75S40.75 288.25 43.75 288.25zM24 282.75C24 285.75 26.25 288 29.25 288C32.25 288 34.5 285.75 34.5 282.75S32 277.5 29.25 277.5C26.25 277.5 24 280 24 282.75zM223.75 258H24.75V270.75H223.75V258zM202.75 107.25L202.75 107.25L211.75 90.5C212.5 89.25 212 87.5 210.75 86.75L202.25 82.5C201.75 82.25 201.5 82.25 201 82.25C200 82.25 199 82.75 198.5 83.75L185.75 107.5L179.2500000000001 119.5L163.75 111.25C163.25 111 163.0000000000001 111 162.5 111C162 111 161.5 111 161.25 111.25C160.5000000000001 111.75 160 112.5 159.75 113.5L157.5 169C157.5 170 158 171 159 171.5C159.5 171.75 159.75 172 160.25 172C160.75 172 161.25 171.75 161.75 171.5L208.25 139.75C209 139.25 209.5 138.25 209.5 137.25C209.5 136.25 209 135.5 208 135L192.5 126.5L202.75 107.25zM151 193L105.5 167C102 165 99.25 166.75 99.25 170.75V222.5C99.25 226.5 102 228.25 105.5 226.25L151 200.25C154.5 198.25 154.5 195 151 193z" />
    <glyph glyph-name="email"
      unicode="&#xE00A;"
      horiz-adv-x="312.5" d=" M156.25 117.1875C150.390625 117.1875 146.484375 119.140625 136.71875 123.046875L0 195.3125V58.59375C0 46.875 7.8125 39.0625 19.53125 39.0625H292.96875C304.6875 39.0625 312.5 46.875 312.5 58.59375V195.3125L175.78125 123.046875C166.015625 119.140625 162.109375 117.1875 156.25 117.1875zM292.96875 273.4375H19.53125C7.8125 273.4375 0 263.671875 0 253.90625V238.28125L156.25 156.25L312.5 238.28125V253.90625C312.5 263.671875 304.6875 273.4375 292.96875 273.4375z" />
    <glyph glyph-name="evento"
      unicode="&#xE00B;"
      horiz-adv-x="250" d=" M118.3 147.8H107C105.9 147.8 105 148.7 105 149.8V161.1C105 162.2 105.9 163.1 107 163.1H118.3C119.4 163.1 120.3 162.2 120.3 161.1V149.8C120.3 148.7 119.4 147.8 118.3 147.8zM109 151.8H116.3V159.1H109V151.8z M96.2 147.8H84.9C83.8 147.8 82.9 148.7 82.9 149.8V161.1C82.9 162.2 83.8 163.1 84.9 163.1H96.2C97.3 163.1 98.2 162.2 98.2 161.1V149.8C98.2 148.7 97.3 147.8 96.2 147.8zM86.9 151.8H94.2V159.1H86.9V151.8z M74.2 147.8H62.9C61.8 147.8 60.9 148.7 60.9 149.8V161.1C60.9 162.2 61.8 163.1 62.9 163.1H74.2C75.3 163.1 76.2 162.2 76.2 161.1V149.8C76.2 148.7 75.3 147.8 74.2 147.8zM64.9 151.8H72.2V159.1H64.9V151.8z M140.3 147.8H129C127.9 147.8 127 148.7 127 149.8V161.1C127 162.2 127.9 163.1 129 163.1H140.3C141.4 163.1 142.3 162.2 142.3 161.1V149.8C142.3 148.7 141.4 147.8 140.3 147.8zM131 151.8H138.3V159.1H131V151.8z M162.3 147.8H151C149.9 147.8 149 148.7 149 149.8V161.1C149 162.2 149.9 163.1 151 163.1H162.3C163.4 163.1 164.3 162.2 164.3 161.1V149.8C164.3 148.7 163.4 147.8 162.3 147.8zM153.1 151.8H160.4V159.1H153.1V151.8z M184.4 147.8H173.1C172 147.8 171.1 148.7 171.1 149.8V161.1C171.1 162.2 172 163.1 173.1 163.1H184.4C185.5 163.1 186.4 162.2 186.4 161.1V149.8C186.4 148.7 185.5 147.8 184.4 147.8zM175.1 151.8H182.4V159.1H175.1V151.8z M198.6 109.9H48.1C46.4 109.9 45.1 111.2 45.1 112.9V219.1C45.1 220.8 46.4 222.1 48.1 222.1H198.6C200.3 222.1 201.6 220.8 201.6 219.1V113C201.6 111.3 200.3 109.9 198.6 109.9zM51.1 115.9H195.6V216.1H51.1V115.9z M118.3 126H107C105.9 126 105 126.9 105 128V139.3C105 140.4 105.9 141.3 107 141.3H118.3C119.4 141.3 120.3 140.4 120.3 139.3V128C120.3 126.9 119.4 126 118.3 126zM109 130H116.3V137.3H109V130z M96.2 126H84.9C83.8 126 82.9 126.9 82.9 128V139.3C82.9 140.4 83.8 141.3 84.9 141.3H96.2C97.3 141.3 98.2 140.4 98.2 139.3V128C98.2 126.9 97.3 126 96.2 126zM86.9 130H94.2V137.3H86.9V130z M74.2 126H62.9C61.8 126 60.9 126.9 60.9 128V139.3C60.9 140.4 61.8 141.3 62.9 141.3H74.2C75.3 141.3 76.2 140.4 76.2 139.3V128C76.2 126.9 75.3 126 74.2 126zM64.9 130H72.2V137.3H64.9V130z M181.2 136.1L176.4 136.1L176.4 131.3L181.2 131.3z M159.1 136.1L154.3 136.1L154.3 131.3L159.1 131.3z M137.1 136.1L132.3 136.1L132.3 131.3L137.1 131.3z M118.3 191.3H107C105.9 191.3 105 192.2 105 193.3V204.6C105 205.7 105.9 206.6 107 206.6H118.3C119.4 206.6 120.3 205.7 120.3 204.6V193.3C120.3 192.2 119.4 191.3 118.3 191.3zM109 195.3H116.3V202.6H109V195.3z M96.2 191.3H84.9C83.8 191.3 82.9 192.2 82.9 193.3V204.6C82.9 205.7 83.8 206.6 84.9 206.6H96.2C97.3 206.6 98.2 205.7 98.2 204.6V193.3C98.2 192.2 97.3 191.3 96.2 191.3zM86.9 195.3H94.2V202.6H86.9V195.3z M140.3 191.3H129C127.9 191.3 127 192.2 127 193.3V204.6C127 205.7 127.9 206.6 129 206.6H140.3C141.4 206.6 142.3 205.7 142.3 204.6V193.3C142.3 192.2 141.4 191.3 140.3 191.3zM131 195.3H138.3V202.6H131V195.3z M184.4 191.3H173.1C172 191.3 171.1 192.2 171.1 193.3V204.6C171.1 205.7 172 206.6 173.1 206.6H184.4C185.5 206.6 186.4 205.7 186.4 204.6V193.3C186.4 192.2 185.5 191.3 184.4 191.3zM175.1 195.3H182.4V202.6H175.1V195.3z M70.9 201.4L66.1 201.4L66.1 196.6L70.9 196.6z M155.1 194.1L155.1 194.1C154.6 194.1 154.1 194.3 153.7 194.7L150.8 197.6C150 198.4 150 199.6 150.8 200.4S152.8 201.2 153.6 200.4L155.1 198.9L160.4 204.2C161.2 205 162.4 205 163.2 204.2S164 202.2 163.2 201.4L156.5 194.7C156.1 194.3 155.6 194.1 155.1 194.1z M118.3 169.6H107C105.9 169.6 105 170.5 105 171.6V182.9C105 184 105.9 184.9 107 184.9H118.3C119.4 184.9 120.3 184 120.3 182.9V171.6C120.3 170.5 119.4 169.6 118.3 169.6zM109 173.6H116.3V180.9H109V173.6z M74.2 169.6H62.9C61.8 169.6 60.9 170.5 60.9 171.6V182.9C60.9 184 61.8 184.9 62.9 184.9H74.2C75.3 184.9 76.2 184 76.2 182.9V171.6C76.2 170.5 75.3 169.6 74.2 169.6zM64.9 173.6H72.2V180.9H64.9V173.6z M140.3 169.6H129C127.9 169.6 127 170.5 127 171.6V182.9C127 184 127.9 184.9 129 184.9H140.3C141.4 184.9 142.3 184 142.3 182.9V171.6C142.3 170.5 141.4 169.6 140.3 169.6zM131 173.6H138.3V180.9H131V173.6z M162.3 169.6H151C149.9 169.6 149 170.5 149 171.6V182.9C149 184 149.9 184.9 151 184.9H162.3C163.4 184.9 164.3 184 164.3 182.9V171.6C164.3 170.5 163.4 169.6 162.3 169.6zM153.1 173.6H160.4V180.9H153.1V173.6z M184.4 169.6H173.1C172 169.6 171.1 170.5 171.1 171.6V182.9C171.1 184 172 184.9 173.1 184.9H184.4C185.5 184.9 186.4 184 186.4 182.9V171.6C186.4 170.5 185.5 169.6 184.4 169.6zM175.1 173.6H182.4V180.9H175.1V173.6z M88.7 172.9C88.2 172.9 87.7 173.1 87.3 173.5L84.4 176.4C83.6 177.2 83.6 178.4 84.4 179.2S86.4 180 87.2 179.2L88.7 177.7L94 183C94.8 183.8000000000001 96 183.8000000000001 96.8 183S97.6 181 96.8 180.2L90.1 173.5C89.7 173.1 89.2 172.9 88.7 172.9z M201.6 228.6H195.6V249.5H51.1V228.6H45.1V252.5C45.1 254.2 46.4 255.5 48.1 255.5H198.6C200.3 255.5 201.6 254.2 201.6 252.5V228.6z M167.5 231.7C163.7 231.7 160.6 234.8 160.6 238.6S163.7 245.5 167.5 245.5S174.4 242.4000000000001 174.4 238.6C174.3 234.8 171.3 231.7 167.5 231.7zM167.5 241.4C165.9 241.4 164.6 240.1 164.6 238.5S165.9 235.6 167.5 235.6S170.4 236.9 170.4 238.5S169.1 241.4 167.5 241.4z M79.3 231.7C75.5 231.7 72.4 234.8 72.4 238.6S75.5 245.5 79.3 245.5S86.2 242.4000000000001 86.2 238.6C86.2 234.8 83.1 231.7 79.3 231.7zM79.3 241.4C77.7 241.4 76.4 240.1 76.4 238.5S77.7 235.6 79.3 235.6S82.2 236.9 82.2 238.5S80.9 241.4 79.3 241.4z M167.5 241.4C166.4 241.4 165.5 242.3 165.5 243.4V263C165.5 264.1 166.4 265 167.5 265S169.5 264.1 169.5 263V243.4C169.5 242.3 168.6 241.4 167.5 241.4z M79.3 241.4C78.2 241.4 77.3 242.3 77.3 243.4V263C77.3 264.1 78.2 265 79.3 265S81.3 264.1 81.3 263V243.4C81.3 242.3 80.4 241.4 79.3 241.4z" />
    <glyph glyph-name="facebook"
      unicode="&#xE00C;"
      horiz-adv-x="312.5" d=" M222.663139329806 192.9012345679013H180.7760141093474V220.4585537918872C180.7760141093474 230.9303350970018 187.3897707231041 233.1349206349207 192.3500881834215 233.1349206349207C197.310405643739 233.1349206349207 222.1119929453263 233.1349206349207 222.1119929453263 233.1349206349207V278.8800705467372L181.3271604938271 278.8800705467372C136.1331569664903 278.8800705467372 125.6613756613757 244.7089947089947 125.6613756613757 223.2142857142857V192.9012345679013H99.2063492063492V146.0537918871252H125.6613756613757C125.6613756613757 85.978835978836 125.6613756613757 13.2275132275133 125.6613756613757 13.2275132275133H180.7760141093474C180.7760141093474 13.2275132275133 180.7760141093474 86.5299823633157 180.7760141093474 146.0537918871253H218.2539682539682L222.663139329806 192.9012345679013z" />
    <glyph glyph-name="fullscreen"
      unicode="&#xE00D;"
      horiz-adv-x="310.77665441176475" d=" M295.8409926470589 176.3556985294118C287.7987132352942 177.5045955882353 280.905330882353 172.3345588235294 279.1819852941177 164.2922794117647L260.2251838235295 50.5514705882353L146.484375 31.594669117647C138.4420955882353 30.4457720588235 133.2720588235295 22.9779411764706 134.420955882353 14.9356617647059C135.5698529411765 8.0422794117647 141.8887867647059 2.8722426470588 148.7821691176471 2.8722426470588C149.3566176470589 2.8722426470588 150.5055147058824 2.8722426470588 151.0799632352942 2.8722426470588L284.9264705882353 24.7012867647059L306.7555147058824 158.5477941176471C309.0533088235295 167.7389705882353 303.8832720588236 175.2068014705882 295.8409926470589 176.3556985294118z M175.2068014705883 296.9898897058824C174.0579044117647 305.0321691176471 166.5900735294118 310.202205882353 158.5477941176471 309.0533088235294L25.2757352941177 286.6498161764706L2.8722426470588 152.8033088235294C1.7233455882353 144.7610294117647 6.8933823529412 137.8676470588235 14.9356617647059 136.1443014705882C15.5101102941177 136.1443014705882 16.6590073529412 136.1443014705882 17.2334558823529 136.1443014705882C24.1268382352941 136.1443014705882 30.4457720588235 141.3143382352941 31.5946691176471 148.2077205882353L49.9770220588235 261.9485294117647L163.717830882353 280.905330882353C171.1856617647059 281.4797794117647 176.9301470588236 288.9476102941176 175.2068014705883 296.9898897058824z" />
    <glyph glyph-name="link"
      unicode="&#xE00E;"
      horiz-adv-x="250" d=" M203 265C191.5 276.5 178.5 282.25 164.5 282.25C146.25 282.25 126.75 272 106.5 251.75C86 231.25 57.25 191.5 93.5 155.25C101.75 147 110.75 141.75 120.5 139.25C121.25 140 122 140.5 122.5 141.25C129 147.75 134.25 154 137.75 159.75C135.75 159.25 133.75 159.25 131.75 159.25C123.5 159.25 116 162.75 108.5 170.25C97 181.75 86 201 121.5 236.5C137.5 252.5 152 260.75 164.5 260.75C172.75 260.75 180.25 257.25 187.75 249.75C198.5 239 209 221 179.25 188.5C180.5 181 180.25 173.25 178.25 165.25C177.5 162 176.5 158.75 175.25 155.5C180 159.25 184.75 163.5 189.75 168.25C205.5 184 215.25 199.5 218.75 214C223.25 232.75 217.75 250.25 203 265z M128.75 233.75C128 233 127.25 232.5 126.75 231.75C119.75 224.75 114.75 218.5 111.25 213C113.25 213.5 115.5 213.75 117.5 213.75C125.75 213.75 133.25 210.25 140.75 202.75C150.25 193.25 153.5 183.5 151 172.25C148.5 161.5 140.75 149.5 127.75 136.75C111.5 120.5 97 112.5 84.5 112.5C76.25 112.5 68.75 116 61.25 123.5C51.75 133 48.5 142.75 51 154C53.25 163.25 59.5 173.75 69.75 184.75C68 195.25 69.5 206.5 74 217.75C69 214 64.25 209.75 59.25 204.75C43.5 189 33.75 173.5 30.25 159C26 140.5 31.25 123 46 108.25C57.5 96.7500000000001 70.5 91 84.5 91C102.75 91 122.25 101.25 142.5 121.5C158.25 137.25 168 152.75 171.5 167.25C176 185.75 170.5 203.25 155.75 218C147.5 226.25 138.5 231.5 128.75 233.75z" />
    <glyph glyph-name="linkedin"
      unicode="&#xE00F;"
      horiz-adv-x="312.5" d=" M0 312.5 M10.4166666666667 207.03125H70.3125V13.0208333333333H10.4166666666667V207.03125z M39.0625 307.2916666666667C19.53125 307.2916666666667 7.8125 294.2708333333333 7.8125 276.0416666666667C7.8125 259.1145833333333 19.53125 244.7916666666667 39.0625 244.7916666666667S70.3125 257.8125 70.3125 276.0416666666667C70.3125 292.96875 58.59375 307.2916666666667 39.0625 307.2916666666667z M229.1666666666667 214.84375C194.0104166666667 214.84375 178.3854166666667 195.3125 170.5729166666667 182.2916666666667V208.3333333333333H110.6770833333333C111.9791666666667 188.8020833333333 110.6770833333333 13.0208333333333 110.6770833333333 13.0208333333333H169.2708333333334V123.6979166666667C169.2708333333334 130.2083333333333 169.2708333333334 135.4166666666667 171.875 139.3229166666667C175.78125 151.0416666666667 187.5 164.0625 205.7291666666667 164.0625C229.1666666666667 164.0625 244.7916666666667 149.7395833333333 244.7916666666667 123.6979166666667V13.0208333333333H304.6875V126.3020833333333C304.6875 186.1979166666667 272.1354166666667 214.84375 229.1666666666667 214.84375z" />
    <glyph glyph-name="menu"
      unicode="&#xE010;"
      horiz-adv-x="841.3461538461538" d=" M807.6923076923076 60.8974358974359H330.1282051282052L285.2564102564103 14.423076923077H807.6923076923077C820.5128205128206 14.423076923077 830.1282051282052 24.0384615384616 830.1282051282052 36.8589743589744S820.5128205128206 60.8974358974359 807.6923076923076 60.8974358974359z M806.0897435897435 181.0897435897436H448.7179487179488L403.8461538461538 134.6153846153846H806.0897435897435C818.9102564102564 134.6153846153846 828.525641025641 144.2307692307692 828.525641025641 157.0512820512821S818.9102564102565 181.0897435897436 806.0897435897435 181.0897435897436z M807.6923076923076 250C820.5128205128204 250 830.1282051282051 259.6153846153847 830.1282051282051 272.4358974358975S820.5128205128206 296.474358974359 807.6923076923076 296.474358974359H363.7820512820513L403.8461538461538 250H807.6923076923076z M121.7948717948718 181.0897435897436L201.9230769230769 14.4230769230769L283.6538461538462 181.0897435897436z M307.6923076923077 181.0897435897436L225.9615384615385 14.4230769230769L389.4230769230769 181.0897435897436z M16.025641025641 181.0897435897436L177.8846153846154 14.4230769230769L97.7564102564103 181.0897435897436z M389.4230769230769 203.5256410256411L304.4871794871795 296.474358974359L261.2179487179488 296.474358974359L307.6923076923077 203.5256410256411z M201.9230769230769 203.5256410256411L283.6538461538462 203.5256410256411L238.7820512820513 296.474358974359L166.6666666666667 296.474358974359L121.7948717948718 203.5256410256411z M144.2307692307692 296.474358974359L100.9615384615385 296.474358974359L16.025641025641 203.5256410256411L97.7564102564103 203.5256410256411z" />
    <glyph glyph-name="minus"
      unicode="&#xE011;"
      horiz-adv-x="312.5" d=" M156.25 0C69.95550390625 0 0 69.9555078125003 0 156.25C0 242.5444921874998 69.95550390625 312.5 156.25 312.5C242.5444960937501 312.5 312.5 242.5444921874998 312.5 156.25C312.5 69.9555078125003 242.5444960937501 0 156.25 0zM78.125 175.78125L78.125 136.71875L234.375 136.71875L234.375 175.78125zM78.125 175.78125" />
    <glyph glyph-name="more"
      unicode="&#xE012;"
      horiz-adv-x="312.5" d=" M156.25 312.5C70.3125 312.5 0 242.1875 0 156.25S70.3125 0 156.25 0S312.5 70.3125 312.5 156.25S242.1875 312.5 156.25 312.5zM239.2578125 146.484375H166.015625V73.2421875H146.484375V146.484375H73.2421875V166.015625H146.484375V239.2578125H166.015625V166.015625H239.2578125V146.484375z" />
    <glyph glyph-name="question-form"
      unicode="&#xE013;"
      horiz-adv-x="312.5" d=" M156.25 312.5C69.6614583333333 312.5 0 242.8385416666667 0 156.25S69.6614583333333 0 156.25 0S312.5 69.6614583333333 312.5 156.25S242.1875000000001 312.5 156.25 312.5zM160.8072916666667 74.21875C157.5520833333334 70.9635416666667 153.6458333333333 69.6614583333333 148.4375 69.6614583333333C143.2291666666667 69.6614583333333 138.671875 70.9635416666667 136.0677083333334 74.21875S131.5104166666667 81.3802083333333 131.5104166666667 87.2395833333333C131.5104166666667 98.9583333333333 137.3697916666667 104.8177083333333 148.4375 104.8177083333333C153.6458333333334 104.8177083333333 158.203125 103.515625 160.8072916666667 100.2604166666667S165.3645833333334 93.0989583333333 165.3645833333334 87.2395833333333C164.7135416666667 82.03125 163.4114583333334 77.4739583333333 160.8072916666667 74.21875zM201.171875 186.1979166666667C199.21875 181.640625 197.265625 177.734375 193.359375 173.1770833333334S184.2447916666667 164.0625 175.78125 157.5520833333334C168.6197916666667 151.6927083333334 164.0625 147.1354166666667 161.4583333333334 143.8802083333334C159.5052083333334 140.625 158.203125 136.71875 158.203125 132.1614583333334C158.203125 132.1614583333334 158.203125 132.1614583333334 158.203125 132.1614583333334C156.9010416666667 123.6979166666667 147.7864583333334 123.6979166666667 147.7864583333334 123.6979166666667H143.2291666666667C143.2291666666667 123.6979166666667 135.4166666666667 125 136.0677083333334 130.859375C136.0677083333334 139.3229166666667 137.3697916666667 146.484375 140.625 151.6927083333334S149.0885416666667 162.7604166666667 156.9010416666667 169.2708333333333C166.015625 176.4322916666667 171.875 182.2916666666667 174.4791666666667 186.1979166666667S178.3854166666667 194.6614583333334 178.3854166666667 200.5208333333333C178.3854166666667 207.03125 176.4322916666667 211.5885416666667 171.875 215.4947916666667S161.4583333333333 220.703125 153.6458333333333 220.703125C146.484375 220.703125 139.9739583333333 219.4010416666667 133.4635416666667 217.4479166666667C130.2083333333333 216.1458333333334 126.953125 214.84375 123.6979166666667 213.5416666666667C123.6979166666667 213.5416666666667 123.6979166666667 213.5416666666667 123.6979166666667 213.5416666666667C115.8854166666667 210.2864583333334 112.6302083333333 216.796875 112.6302083333333 216.796875L109.375 223.3072916666667C109.375 223.3072916666667 106.1197916666667 231.1197916666667 113.28125 234.375C126.3020833333333 240.234375 140.625 243.4895833333334 155.5989583333334 243.4895833333334C170.5729166666667 243.4895833333334 182.2916666666667 239.5833333333334 191.40625 232.421875S204.4270833333334 214.84375 204.4270833333334 201.8229166666667C203.7760416666667 195.9635416666667 203.125 190.7552083333333 201.171875 186.1979166666667z" />
    <glyph glyph-name="question"
      unicode="&#xE014;"
      horiz-adv-x="319.52965235173826" d=" M157.8476482617587 3.5148261758691C242.2034764826176 3.5148261758691 310.5828220858896 71.8941717791411 310.5828220858896 156.25S242.2034764826176 308.9851738241309 157.8476482617587 308.9851738241309S5.1124744376278 240.6058282208589 5.1124744376278 156.25C5.1124744376278 156.25 5.1124744376278 156.25 5.1124744376278 156.25C5.4320040899796 71.8941717791411 73.4918200408998 3.5148261758691 157.8476482617587 3.5148261758691zM157.8476482617587 279.2689161554192C225.5879345603272 279.2689161554192 280.866564417178 224.3098159509203 280.866564417178 156.25S225.5879345603272 33.5506134969325 157.8476482617587 33.5506134969325C90.1073619631902 33.5506134969325 35.1482617586912 88.5097137014315 35.1482617586912 156.25C35.1482617586912 223.9902862985685 90.1073619631902 278.9493865030675 157.8476482617587 279.2689161554192L157.8476482617587 279.2689161554192zM171.9069529652352 81.4800613496933C171.9069529652352 72.8527607361963 164.877300613497 65.823108384458 156.25 65.823108384458C147.6226993865031 65.823108384458 140.5930470347649 72.8527607361963 140.5930470347649 81.4800613496933C140.5930470347649 90.1073619631902 147.6226993865031 97.1370143149284 156.25 97.1370143149284C164.5577709611452 97.1370143149284 171.9069529652352 90.1073619631902 171.9069529652352 81.4800613496933C171.9069529652352 81.4800613496933 171.9069529652352 81.4800613496933 171.9069529652352 81.4800613496933L171.9069529652352 81.4800613496933zM106.7229038854806 204.4989775051125C105.4447852760736 208.3333333333334 105.4447852760736 212.8067484662577 107.3619631901841 216.6411042944785C116.3087934560327 235.1738241308794 134.8415132924336 246.9964212678937 155.2914110429448 246.9964212678937H155.6109406952965C184.6881390593048 246.9964212678937 208.6528629856851 223.6707566462168 209.6114519427403 194.5935582822086C210.2505112474438 170.94836400818 195.5521472392638 149.8594069529653 173.1850715746421 142.1906952965235C173.1850715746421 142.1906952965235 171.5874233128834 141.55163599182 171.5874233128834 140.5930470347649V128.1313905930471C171.5874233128834 119.5040899795501 164.5577709611452 112.4744376278119 155.9304703476483 112.4744376278119C147.3031697341513 112.4744376278119 140.2735173824131 119.5040899795502 140.2735173824131 128.1313905930471V140.5930470347649C140.2735173824131 154.9718813905931 149.5398773006135 167.4335378323109 163.2796523517383 171.9069529652352C172.5460122699387 175.1022494887526 178.6170756646217 184.0490797546013 178.6170756646217 193.6349693251534C177.9780163599182 205.7770961145195 168.0725971370143 215.0434560327199 155.9304703476483 215.3629856850716C147.3031697341513 215.3629856850716 139.6344580777096 210.2505112474438 136.1196319018405 202.5817995910021C132.2852760736196 194.5935582822086 123.0189161554192 191.3982617586912 115.3502044989775 194.9130879345604C111.1963190184049 197.1497955010225 108.0010224948875 200.3450920245399 106.7229038854806 204.4989775051125z" />
    <glyph glyph-name="share"
      unicode="&#xE015;"
      horiz-adv-x="368.51415094339626" d=" M256.8543632075472 0H37.5884433962264C16.9516509433962 0 0 17.3201650943396 0 39.0625V246.9044811320755C0 268.6468160377359 16.9516509433962 286.3354952830189 37.5884433962264 286.3354952830189H245.7989386792453L151.8278301886793 246.5359669811321H37.5884433962264L38.3254716981132 39.0625000000001L256.8543632075472 39.7995283018868L256.1173349056604 67.8066037735849L294.4428066037736 97.2877358490566V39.0625C294.4428066037736 17.3201650943396 277.4911556603774 0 256.8543632075472 0z M255.3803066037736 99.498820754717L255.0117924528302 162.1462264150943C165.8313679245283 162.8832547169811 99.1303066037736 110.1857311320755 99.1303066037736 110.1857311320755S109.8172169811321 226.2676886792453 255.748820754717 255.0117924528302V312.5L368.5141509433963 205.9994103773585L313.6055424528302 154.0389150943396L255.3803066037736 99.498820754717z" />
    <glyph glyph-name="slide"
      unicode="&#xE016;"
      horiz-adv-x="250" d=" M50 272.5H200V267.5H50V272.5zM37.5 262.5H212.5V257.5H37.5V262.5zM30 247.5H220V107.5H30V247.5zM25 252.5H225V102.5H25V252.5z" />
    <glyph glyph-name="transmissao"
      unicode="&#xE017;"
      horiz-adv-x="250" d=" M67.75 187.5C67.75 172.4502405671109 79.9502405671109 160.25 95 160.25C110.0497594328891 160.25 122.25 172.4502405671109 122.25 187.5C122.25 202.5497594328891 110.0497594328891 214.75 95 214.75C79.9502405671109 214.75 67.75 202.5497594328891 67.75 187.5z M227 240L183.5 214.75V240.25C183.5 260 167.25 276 147.75 276H42C22.5 276.25 6.25 260 6.25 240.25V134.75C6.25 115 22.5 98.75 42 98.75H147.5C167.25 98.75 183.25 115 183.25 134.5V143.75L226.75 118.5C234.25 114.25 243.5 119.5 243.5 128V230.5C243.75 239 234.5 244.25 227 240zM105 147.25C66.5 143.25 40.25 161 29.75 187.5C40.25 214 66.5 231.75 105 227.75C137.5 224.5 154 207.5 160 187.5C154.25 167.25 137.5 150.5 105 147.25z" />
    <glyph glyph-name="twitter"
      unicode="&#xE018;"
      horiz-adv-x="312.5" d=" M195.76171875 282.509765625C167.5390625 272.236328125 149.70703125 245.751953125 151.728515625 216.767578125L152.412109375 205.5859375L141.123046875 206.953125C100.0390625 212.197265625 64.130859375 230 33.642578125 259.912109375L18.740234375 274.74609375L14.90234375 263.7890625C6.77734375 239.365234375 11.97265625 213.564453125 28.896484375 196.2109375C37.9296875 186.62109375 35.888671875 185.25390625 20.322265625 190.966796875C14.90234375 192.783203125 10.15625 194.16015625 9.70703125 193.4765625C8.134765625 191.875 13.544921875 171.103515625 17.83203125 162.880859375C23.701171875 151.455078125 35.6640625 140.283203125 48.76953125 133.65234375L59.833984375 128.408203125L46.73828125 128.18359375C34.1015625 128.18359375 33.642578125 127.958984375 35 123.154296875C39.51171875 108.3203125 57.353515625 92.55859375 77.216796875 85.712890625L91.2109375 80.927734375L79.0234375 73.623046875C60.966796875 63.10546875 39.736328125 57.177734375 18.505859375 56.73828125C8.349609375 56.513671875 0 55.595703125 0 54.90234375C0 52.626953125 27.548828125 39.853515625 43.57421875 34.814453125C91.669921875 19.9804687500001 148.798828125 26.376953125 191.69921875 51.708984375C222.1875 69.74609375 252.65625 105.5859375 266.89453125 140.29296875C274.580078125 158.76953125 282.24609375 192.568359375 282.24609375 208.759765625C282.24609375 219.267578125 282.9296875 220.634765625 295.56640625 233.18359375C303.02734375 240.48828125 310.01953125 248.4765625 311.376953125 250.76171875C313.642578125 255.107421875 313.3984375 255.107421875 301.89453125 251.220703125C282.705078125 244.365234375 279.990234375 245.283203125 289.482421875 255.556640625C296.474609375 262.861328125 304.833984375 276.103515625 304.833984375 279.98046875C304.833984375 280.6640625 301.455078125 279.53125 297.607421875 277.470703125C293.544921875 275.205078125 284.51171875 271.77734375 277.734375 269.7265625L265.546875 265.83984375L254.482421875 273.37890625C248.37890625 277.48046875 239.8144531250001 282.05078125 235.29296875 283.41796875C223.76953125 286.611328125 206.15234375 286.162109375 195.76171875 282.509765625z" />
    <glyph glyph-name="video"
      unicode="&#xE019;"
      horiz-adv-x="250" d=" M220 270H30C13.5 270 0 256.5 0 240V135C0 118.5 13.5 105 30 105H220C236.5 105 250 118.5 250 135V240C250 256.5 236.5 270 220 270zM105 155.5V222.75L163.25 189.25L105 155.5z" />
    <glyph glyph-name="wiki"
      unicode="&#xE01A;"
      horiz-adv-x="250.00000000000003" d=" M104.1666666666667 262.5H112.5V258.3333333333333H120.8333333333334V254.1666666666667H129.1666666666667V258.3333333333333H137.5V262.5H145.8333333333334V266.6666666666667H237.5000000000001V125H145.8333333333334V120.8333333333333H137.5V116.6666666666667H129.1666666666667V112.5H120.8333333333334V116.6666666666667H112.5V120.8333333333333H104.1666666666667V125H12.5V266.6666666666667H104.1666666666667V262.5zM104.1666666666667 258.3333333333333H20.8333333333333V133.3333333333333H104.1666666666667V129.1666666666667H112.5V125H120.8333333333334V245.8333333333333H120.8333333333334V250H112.5V254.1666666666667H104.1666666666667V258.3333333333333zM145.8333333333334 258.3333333333333V254.1666666666667H137.5V250H129.1666666666667V245.8333333333333H129.1666666666667V125H137.5V129.1666666666667H145.8333333333334V133.3333333333333H229.1666666666667V258.3333333333333H145.8333333333334zM145.8333333333334 158.3333333333333H212.5V154.1666666666667H145.8333333333334V158.3333333333333zM104.1666666666667 154.1666666666667H37.5V158.3333333333333H104.1666666666667V154.1666666666667zM145.8333333333334 175H212.5V170.8333333333333H145.8333333333334V175zM104.1666666666667 170.8333333333333H37.5V175H104.1666666666667V170.8333333333333zM145.8333333333334 191.6666666666667H212.5V187.5H145.8333333333334V191.6666666666667zM104.1666666666667 187.5H37.5V191.6666666666667H104.1666666666667V187.5zM145.8333333333334 208.3333333333333H212.5V204.1666666666667H145.8333333333334V208.3333333333333zM104.1666666666667 204.1666666666667H37.5V208.3333333333333H104.1666666666667V204.1666666666667zM145.8333333333334 225H212.5V220.8333333333333H145.8333333333334V225zM104.1666666666667 220.8333333333333H37.5V225H104.1666666666667V220.8333333333333zM145.8333333333334 241.6666666666667H212.5V237.5H145.8333333333334V241.6666666666667zM104.1666666666667 237.5H37.5V241.6666666666667H104.1666666666667V237.5z" />
  </font>
</defs>
</svg>
